<svg version="1.2" xmlns="http://www.w3.org/2000/svg" viewBox="0 0 67 93" width="67" height="93">
	<title>Group 207-svg</title>
	<style>
		.s0 { fill: #9b392c } 
	</style>
	<path id="Layer" fill-rule="evenodd" class="s0" d="m107.6 38q1.7 2.9 1.7 6.5 0 3.5-1.6 6.4-1.6 2.8-4.4 4.5-2.7 1.6-6.2 1.6-3 0-5.5-1.3-2.4-1.3-3.9-3.4v13.3q0 0.8-0.5 1.3-0.5 0.4-1.2 0.4-0.8 0-1.3-0.4-0.5-0.5-0.5-1.3v-21.3q0.1-3.5 1.7-6.4 1.6-2.8 4.5-4.4 2.8-1.6 6.3-1.6 3.6 0 6.4 1.6 2.9 1.7 4.5 4.5zm-1.8 6.5q0-2.7-1.2-4.9-1.2-2.1-3.2-3.3-2.1-1.3-4.7-1.3-2.6 0-4.7 1.3-2 1.2-3.2 3.3-1.2 2.2-1.2 4.9 0 2.6 1.2 4.8 1.2 2.1 3.2 3.3 2.1 1.3 4.7 1.3 2.6 0 4.7-1.3 2-1.2 3.2-3.3 1.2-2.2 1.2-4.8z"/>
	<path id="Layer" fill-rule="evenodd" class="s0" d="m138.1 38q1.7 2.9 1.7 6.5v10.6q0 0.7-0.5 1.2-0.5 0.5-1.2 0.5-0.8 0-1.3-0.5-0.5-0.5-0.5-1.2v-2.8q-1.4 2-3.5 3.2-2.6 1.5-5.9 1.5-3.4 0-6.2-1.6-2.7-1.7-4.3-4.5-1.6-2.9-1.6-6.4 0-3.6 1.6-6.5 1.6-2.8 4.5-4.5 2.8-1.6 6.4-1.6 3.5 0 6.4 1.6 2.8 1.7 4.4 4.5zm-2.9 11.3q1.2-2.2 1.2-4.8 0-2.7-1.2-4.9-1.2-2.1-3.3-3.3-2-1.3-4.6-1.3-2.6 0-4.7 1.3-2 1.2-3.2 3.3-1.3 2.2-1.3 4.9 0 2.6 1.3 4.8 1.2 2.1 3.2 3.3 2.1 1.3 4.7 1.3 2.6 0 4.6-1.3 2.1-1.2 3.3-3.3z"/>
	<path id="Layer" class="s0" d="m166.7 34.4l-14.6 32.1q-0.4 1-1.3 1-0.4 0-0.8-0.2-1.5-0.6-0.9-2.1l4.5-9.9q0 0 0 0l-10.1-20.9q-0.3-0.7 0-1.3 0.2-0.5 0.9-0.9 0.6-0.3 1.2-0.1 0.6 0.2 0.9 0.9l8.8 18.6 8.4-18.6q0.7-1.4 2.1-0.8 1.6 0.7 0.9 2.2z"/>
	<path id="Layer" class="s0" d="m190 36.2q0.5 0.5 0.4 1.2-0.1 0.6-0.8 1-0.5 0.4-1.1 0.3-0.6-0.1-1-0.7-2.6-3-6.6-3-2.5 0-4.4 1.3-2 1.2-3 3.3-1.1 2.1-1.1 4.9 0 2.7 1.2 4.8 1.1 2.1 3.1 3.3 2 1.3 4.6 1.3 1.8 0 3.3-0.5 1.4-0.5 2.6-1.5 0.5-0.4 1.1-0.5 0.6 0 1.1 0.4 0.5 0.5 0.6 1.1 0 0.6-0.5 1.1-3.2 3-8.2 3-3.5 0-6.3-1.6-2.8-1.7-4.4-4.5-1.6-2.9-1.6-6.4 0-3.6 1.6-6.5 1.5-2.8 4.2-4.5 2.6-1.6 6.1-1.6 2.7 0 5.1 1.1 2.3 1 4 3.2z"/>
	<path id="Layer" class="s0" d="m220 43.3v11.8q0 0.7-0.5 1.2-0.5 0.5-1.2 0.5-0.8 0-1.3-0.5-0.5-0.5-0.5-1.2v-11.8q0-2.8-1-4.6-1.1-1.8-2.9-2.7-1.8-0.9-4.1-0.9-2.2 0-4 0.9-1.8 0.8-2.8 2.3-1.1 1.5-1.1 3.4v3.3 10.1q0 0.7-0.4 1.2-0.5 0.5-1.3 0.5-0.8 0-1.3-0.5-0.4-0.5-0.4-1.2v-10.1-11.1-10.6q0-0.8 0.4-1.3 0.5-0.5 1.3-0.5 0.8 0 1.3 0.5 0.4 0.5 0.4 1.3v10.6 1.5q1.2-1.4 2.9-2.3 2.4-1.3 5.3-1.3 3.2 0 5.7 1.4 2.6 1.3 4 3.9 1.5 2.5 1.5 6.2z"/>
	<path id="Layer" fill-rule="evenodd" class="s0" d="m65.6 33q0 9.3-4.2 16.8-4.1 7.4-11.3 11.7-7.2 4.4-16.3 4.4-7.9 0-14.4-3.4-6.4-3.4-10.3-8.9v34.7q0 2.2-1.2 3.4-1.3 1.2-3.3 1.2-2.1 0-3.4-1.2-1.2-1.2-1.2-3.4v-55.8q0.1-9.2 4.4-16.6 4.3-7.4 11.7-11.6 7.4-4.3 16.6-4.3 9.4 0 16.9 4.3 7.4 4.3 11.7 11.8 4.3 7.4 4.3 16.9zm-9-2.4l-9.9-17.1c-0.8-1.5-2.4-2.4-4.1-2.4h-19.6c-1.7 0-3.3 0.9-4.1 2.4l-9.8 17.1c-0.9 1.4-0.9 3.2 0 4.7l9.8 17.1c0.8 1.4 2.4 2.3 4.1 2.3h19.6c1.7 0 3.3-0.9 4.1-2.3l9.9-17.1c0.8-1.5 0.8-3.3 0-4.7z"/>
</svg>