<svg width="35" height="49" viewBox="0 0 35 49" fill="none" xmlns="http://www.w3.org/2000/svg">
<path d="M17.5001 49C17.5001 49 0.350098 26.6315 0.350098 17.15C0.350098 14.8978 0.793696 12.6677 1.65556 10.587C2.51743 8.50625 3.78069 6.61564 5.37322 5.02312C6.96574 3.43059 8.85634 2.16733 10.9371 1.30547C13.0178 0.443598 15.2479 0 17.5001 0C19.7523 0 21.9824 0.443598 24.0631 1.30547C26.1439 2.16733 28.0345 3.43059 29.627 5.02312C31.2195 6.61564 32.4828 8.50625 33.3446 10.587C34.2065 12.6677 34.6501 14.8978 34.6501 17.15C34.6501 26.6315 17.5001 49 17.5001 49ZM17.5001 22.05C18.7997 22.05 20.046 21.5338 20.9649 20.6148C21.8838 19.6959 22.4001 18.4496 22.4001 17.15C22.4001 15.8504 21.8838 14.6041 20.9649 13.6852C20.046 12.7662 18.7997 12.25 17.5001 12.25C16.2005 12.25 14.9542 12.7662 14.0353 13.6852C13.1163 14.6041 12.6001 15.8504 12.6001 17.15C12.6001 18.4496 13.1163 19.6959 14.0353 20.6148C14.9542 21.5338 16.2005 22.05 17.5001 22.05Z" fill="#9B392C"/>
</svg>
