<svg width="829" height="1159" viewBox="0 0 829 1159" fill="none" xmlns="http://www.w3.org/2000/svg">
<path opacity="0.05" d="M774.579 200.539C738.286 138.606 688.847 89.7176 626.227 53.82C563.603 17.9488 492.526 0 413.009 0C335.48 0 265.638 17.6932 203.526 53.084C141.392 88.4749 92.1893 136.901 55.9134 198.327C19.6196 259.775 0.984767 328.825 0 405.503V1101.49C0 1119.18 5.21793 1133.19 15.6582 1143.51C26.0941 1153.84 40.2596 1159 58.1503 1159C75.0428 1159 88.7137 1153.84 99.154 1143.51C109.59 1133.19 114.808 1119.18 114.808 1101.49V667.97C147.613 714.189 191.085 751.285 245.269 779.303C299.436 807.317 359.823 821.326 426.431 821.326C502.962 821.326 571.544 803.399 632.189 767.502C692.808 731.635 740.781 682.716 776.077 620.787C811.346 558.854 829 489.064 829 411.399C829 332.765 810.855 262.468 774.579 200.539ZM714.526 440.263L590.432 652.824C579.743 671.143 559.98 682.425 538.596 682.425H290.408C269.024 682.425 249.262 671.143 238.568 652.824L114.478 440.263C103.784 421.949 103.784 399.382 114.478 381.063L238.568 168.502C249.262 150.183 269.024 138.902 290.408 138.902H538.596C559.98 138.902 579.743 150.183 590.432 168.502L714.526 381.063C725.221 399.382 725.221 421.949 714.526 440.263Z" fill="#C5C2C2"/>
</svg>
