<svg width="52" height="52" viewBox="0 0 52 52" fill="none" xmlns="http://www.w3.org/2000/svg">
<path d="M41.2931 51.3749C39.0818 51.3749 35.9757 50.5752 31.3243 47.9765C25.6682 44.8046 21.2933 41.8763 15.6677 36.2655C10.2438 30.845 7.60436 27.3355 3.91026 20.6134C-0.263019 13.0236 0.448387 9.04512 1.24362 7.34477C2.19065 5.3125 3.58854 4.097 5.39538 2.89055C6.42165 2.21815 7.5077 1.64176 8.63976 1.16868C8.75304 1.11996 8.85839 1.07352 8.95241 1.03161C9.51315 0.778988 10.3628 0.39723 11.4389 0.805043C12.1571 1.07465 12.7983 1.62633 13.802 2.61754C15.8603 4.64754 18.6731 9.1686 19.7107 11.3889C20.4074 12.8854 20.8685 13.8732 20.8696 14.9811C20.8696 16.2781 20.2171 17.2784 19.4253 18.358C19.2769 18.5607 19.1296 18.7545 18.9869 18.9425C18.1248 20.0753 17.9356 20.4027 18.0602 20.9872C18.3128 22.162 20.1967 25.6589 23.2927 28.7481C26.3887 31.8373 29.7848 33.6022 30.9641 33.8537C31.5735 33.984 31.9077 33.7869 33.0768 32.8942C33.2444 32.7662 33.4166 32.6337 33.5967 32.5011C34.8043 31.6028 35.7582 30.9673 37.0246 30.9673H37.0314C38.1337 30.9673 39.0773 31.4454 40.6406 32.2338C42.6796 33.2624 47.3366 36.0389 49.3791 38.0995C50.3726 39.1009 50.9265 39.7398 51.1973 40.4569C51.6051 41.5364 51.221 42.3827 50.9707 42.9491C50.9288 43.0431 50.8823 43.1462 50.8336 43.2606C50.3568 44.3906 49.777 45.4744 49.1016 46.4982C47.8974 48.2993 46.6773 49.6938 44.6405 50.642C43.5946 51.1367 42.45 51.3873 41.2931 51.3749Z" fill="#9B392C"/>
</svg>
